<svg width="1080px" background="white" xmlns="http://www.w3.org/2000/svg" viewBox="0 0 100000 100000">
<g stroke="black" stroke-width="100">
<line x1="98214" y1="50351" x2="98214" y2="51580" />
<line x1="98214" y1="51580" x2="98424" y2="51580" />
<line x1="98424" y1="51580" x2="98424" y2="52775" />
<line x1="97835" y1="52775" x2="98424" y2="52775" />
<line x1="97835" y1="52775" x2="97835" y2="54031" />
<line x1="97835" y1="54031" x2="98280" y2="54031" />
<line x1="98280" y1="54031" x2="98280" y2="55255" />
<line x1="98185" y1="55255" x2="98280" y2="55255" />
<line x1="98185" y1="55255" x2="98185" y2="56400" />
<line x1="97492" y1="56400" x2="98185" y2="56400" />
<line x1="97492" y1="56400" x2="97492" y2="57580" />
<line x1="97181" y1="57580" x2="97492" y2="57580" />
<line x1="97181" y1="57580" x2="97181" y2="58767" />
<line x1="96943" y1="58767" x2="97181" y2="58767" />
<line x1="96943" y1="58767" x2="96943" y2="60099" />
<line x1="96943" y1="60099" x2="97387" y2="60099" />
<line x1="97387" y1="60099" x2="97387" y2="61154" />
<line x1="96525" y1="61154" x2="97387" y2="61154" />
<line x1="96525" y1="61154" x2="96525" y2="62333" />
<line x1="96241" y1="62333" x2="96525" y2="62333" />
<line x1="96241" y1="62333" x2="96241" y2="63577" />
<line x1="96173" y1="63577" x2="96241" y2="63577" />
<line x1="96173" y1="63577" x2="96173" y2="64630" />
<line x1="95467" y1="64630" x2="96173" y2="64630" />
<line x1="95467" y1="64630" x2="95467" y2="65838" />
<line x1="95255" y1="65838" x2="95467" y2="65838" />
<line x1="95255" y1="65838" x2="95255" y2="67056" />
<line x1="95043" y1="67056" x2="95255" y2="67056" />
<line x1="95043" y1="67056" x2="95043" y2="68144" />
<line x1="94479" y1="68144" x2="95043" y2="68144" />
<line x1="94479" y1="68144" x2="94479" y2="69422" />
<line x1="94364" y1="69422" x2="94479" y2="69422" />
<line x1="94364" y1="69422" x2="94364" y2="70151" />
<line x1="93028" y1="70151" x2="94364" y2="70151" />
<line x1="93028" y1="70151" x2="93028" y2="71553" />
<line x1="93028" y1="71553" x2="93141" y2="71553" />
<line x1="93141" y1="71553" x2="93141" y2="72403" />
<line x1="92138" y1="72403" x2="93141" y2="72403" />
<line x1="92138" y1="72403" x2="92138" y2="73396" />
<line x1="91437" y1="73396" x2="92138" y2="73396" />
<line x1="91437" y1="73396" x2="91437" y2="74694" />
<line x1="91258" y1="74694" x2="91437" y2="74694" />
<line x1="91258" y1="74694" x2="91258" y2="75858" />
<line x1="90820" y1="75858" x2="91258" y2="75858" />
<line x1="90820" y1="75858" x2="90820" y2="76527" />
<line x1="89618" y1="76527" x2="90820" y2="76527" />
<line x1="89618" y1="76527" x2="89618" y2="77477" />
<line x1="88870" y1="77477" x2="89618" y2="77477" />
<line x1="88870" y1="77477" x2="88870" y2="78459" />
<line x1="88170" y1="78459" x2="88870" y2="78459" />
<line x1="88170" y1="78459" x2="88170" y2="79483" />
<line x1="87520" y1="79483" x2="88170" y2="79483" />
<line x1="87520" y1="79483" x2="87520" y2="80743" />
<line x1="87147" y1="80743" x2="87520" y2="80743" />
<line x1="87147" y1="80743" x2="87147" y2="81679" />
<line x1="86362" y1="81679" x2="87147" y2="81679" />
<line x1="86362" y1="81679" x2="86362" y2="82742" />
<line x1="85714" y1="82742" x2="86362" y2="82742" />
<line x1="85714" y1="82742" x2="85714" y2="83382" />
<line x1="84609" y1="83382" x2="85714" y2="83382" />
<line x1="84609" y1="83382" x2="84609" y2="84297" />
<line x1="83801" y1="84297" x2="84609" y2="84297" />
<line x1="83801" y1="84297" x2="83801" y2="85151" />
<line x1="82929" y1="85151" x2="83801" y2="85151" />
<line x1="82929" y1="85151" x2="82929" y2="85883" />
<line x1="81947" y1="85883" x2="82929" y2="85883" />
<line x1="81947" y1="85883" x2="81947" y2="86364" />
<line x1="80759" y1="86364" x2="81947" y2="86364" />
<line x1="80759" y1="86364" x2="80759" y2="87308" />
<line x1="79971" y1="87308" x2="80759" y2="87308" />
<line x1="79971" y1="87308" x2="79971" y2="87984" />
<line x1="78961" y1="87984" x2="79971" y2="87984" />
<line x1="78961" y1="87984" x2="78961" y2="89274" />
<line x1="78401" y1="89274" x2="78961" y2="89274" />
<line x1="78401" y1="89274" x2="78401" y2="89734" />
<line x1="77228" y1="89734" x2="78401" y2="89734" />
<line x1="77228" y1="89734" x2="77228" y2="90222" />
<line x1="76090" y1="90222" x2="77228" y2="90222" />
<line x1="76090" y1="90222" x2="76090" y2="90825" />
<line x1="75035" y1="90825" x2="76090" y2="90825" />
<line x1="75035" y1="90825" x2="75035" y2="91934" />
<line x1="74275" y1="91934" x2="75035" y2="91934" />
<line x1="74275" y1="91934" x2="74275" y2="92419" />
<line x1="73141" y1="92419" x2="74275" y2="92419" />
<line x1="73141" y1="92344" x2="73141" y2="92419" />
<line x1="71727" y1="92344" x2="73141" y2="92344" />
<line x1="71727" y1="92344" x2="71727" y2="93469" />
<line x1="70930" y1="93469" x2="71727" y2="93469" />
<line x1="70930" y1="93469" x2="70930" y2="94020" />
<line x1="69838" y1="94020" x2="70930" y2="94020" />
<line x1="69838" y1="93988" x2="69838" y2="94020" />
<line x1="68498" y1="93988" x2="69838" y2="93988" />
<line x1="68498" y1="93988" x2="68498" y2="94718" />
<line x1="67485" y1="94718" x2="68498" y2="94718" />
<line x1="67485" y1="94718" x2="67485" y2="95405" />
<line x1="66440" y1="95405" x2="67485" y2="95405" />
<line x1="66440" y1="95405" x2="66440" y2="95681" />
<line x1="65243" y1="95681" x2="66440" y2="95681" />
<line x1="65243" y1="95681" x2="65243" y2="96013" />
<line x1="64069" y1="96013" x2="65243" y2="96013" />
<line x1="64069" y1="96013" x2="64069" y2="96218" />
<line x1="62860" y1="96218" x2="64069" y2="96218" />
<line x1="62860" y1="96218" x2="62860" y2="96432" />
<line x1="61661" y1="96432" x2="62860" y2="96432" />
<line x1="61661" y1="96432" x2="61661" y2="96446" />
<line x1="60421" y1="96446" x2="61661" y2="96446" />
<line x1="60421" y1="96446" x2="60421" y2="96946" />
<line x1="59291" y1="96946" x2="60421" y2="96946" />
<line x1="59291" y1="96946" x2="59291" y2="97068" />
<line x1="58082" y1="97068" x2="59291" y2="97068" />
<line x1="58082" y1="97068" x2="58082" y2="97623" />
<line x1="56940" y1="97623" x2="58082" y2="97623" />
<line x1="56940" y1="97487" x2="56940" y2="97623" />
<line x1="55696" y1="97487" x2="56940" y2="97487" />
<line x1="55696" y1="97336" x2="55696" y2="97487" />
<line x1="54465" y1="97336" x2="55696" y2="97336" />
<line x1="54465" y1="97336" x2="54465" y2="97533" />
<line x1="53271" y1="97533" x2="54465" y2="97533" />
<line x1="53271" y1="97533" x2="53271" y2="97961" />
<line x1="52081" y1="97961" x2="53271" y2="97961" />
<line x1="52081" y1="97961" x2="52081" y2="98292" />
<line x1="50871" y1="98292" x2="52081" y2="98292" />
<line x1="50871" y1="98225" x2="50871" y2="98292" />
<line x1="49648" y1="98225" x2="50871" y2="98225" />
<line x1="49648" y1="98225" x2="49648" y2="98411" />
<line x1="48419" y1="98411" x2="49648" y2="98411" />
<line x1="48419" y1="97852" x2="48419" y2="98411" />
<line x1="47223" y1="97852" x2="48419" y2="97852" />
<line x1="47223" y1="97852" x2="47223" y2="98176" />
<line x1="45977" y1="98176" x2="47223" y2="98176" />
<line x1="45977" y1="97339" x2="45977" y2="98176" />
<line x1="44836" y1="97339" x2="45977" y2="97339" />
<line x1="44836" y1="97339" x2="44836" y2="97413" />
<line x1="43609" y1="97413" x2="44836" y2="97413" />
<line x1="43609" y1="97285" x2="43609" y2="97413" />
<line x1="42402" y1="97285" x2="43609" y2="97285" />
<line x1="42402" y1="97285" x2="42402" y2="97397" />
<line x1="41147" y1="97397" x2="42402" y2="97397" />
<line x1="41147" y1="97397" x2="41147" y2="97430" />
<line x1="39891" y1="97430" x2="41147" y2="97430" />
<line x1="39891" y1="96435" x2="39891" y2="97430" />
<line x1="38866" y1="96435" x2="39891" y2="96435" />
<line x1="38866" y1="96435" x2="38866" y2="96655" />
<line x1="37556" y1="96655" x2="38866" y2="96655" />
<line x1="37556" y1="95624" x2="37556" y2="96655" />
<line x1="36584" y1="95624" x2="37556" y2="95624" />
<line x1="36584" y1="95624" x2="36584" y2="95699" />
<line x1="35294" y1="95699" x2="36584" y2="95699" />
<line x1="35294" y1="95477" x2="35294" y2="95699" />
<line x1="34084" y1="95477" x2="35294" y2="95477" />
<line x1="34084" y1="95075" x2="34084" y2="95477" />
<line x1="32931" y1="95075" x2="34084" y2="95075" />
<line x1="32931" y1="94810" x2="32931" y2="95075" />
<line x1="31720" y1="94810" x2="32931" y2="94810" />
<line x1="31720" y1="93556" x2="31720" y2="94810" />
<line x1="30931" y1="93556" x2="31720" y2="93556" />
<line x1="30931" y1="93303" x2="30931" y2="93556" />
<line x1="29719" y1="93303" x2="30931" y2="93303" />
<line x1="29719" y1="92789" x2="29719" y2="93303" />
<line x1="28622" y1="92789" x2="29719" y2="92789" />
<line x1="28622" y1="92098" x2="28622" y2="92789" />
<line x1="27617" y1="92098" x2="28622" y2="92098" />
<line x1="27617" y1="91641" x2="27617" y2="92098" />
<line x1="26488" y1="91641" x2="27617" y2="91641" />
<line x1="26488" y1="91213" x2="26488" y2="91641" />
<line x1="25332" y1="91213" x2="26488" y2="91213" />
<line x1="25332" y1="90685" x2="25332" y2="91213" />
<line x1="24226" y1="90685" x2="25332" y2="90685" />
<line x1="24226" y1="90142" x2="24226" y2="90685" />
<line x1="23121" y1="90142" x2="24226" y2="90142" />
<line x1="23121" y1="89270" x2="23121" y2="90142" />
<line x1="22239" y1="89270" x2="23121" y2="89270" />
<line x1="22239" y1="88648" x2="22239" y2="89270" />
<line x1="21183" y1="88648" x2="22239" y2="88648" />
<line x1="21183" y1="87485" x2="21183" y2="88648" />
<line x1="20544" y1="87485" x2="21183" y2="87485" />
<line x1="20544" y1="86691" x2="20544" y2="87485" />
<line x1="19633" y1="86691" x2="20544" y2="86691" />
<line x1="19633" y1="86161" x2="19633" y2="86691" />
<line x1="18495" y1="86161" x2="19633" y2="86161" />
<line x1="18495" y1="85735" x2="18495" y2="86161" />
<line x1="17237" y1="85735" x2="18495" y2="85735" />
<line x1="17237" y1="84379" x2="17237" y2="85735" />
<line x1="16839" y1="84379" x2="17237" y2="84379" />
<line x1="16839" y1="83616" x2="16839" y2="84379" />
<line x1="15889" y1="83616" x2="16839" y2="83616" />
<line x1="15889" y1="83036" x2="15889" y2="83616" />
<line x1="14734" y1="83036" x2="15889" y2="83036" />
<line x1="14734" y1="82116" x2="14734" y2="83036" />
<line x1="13926" y1="82116" x2="14734" y2="82116" />
<line x1="13926" y1="80719" x2="13926" y2="82116" />
<line x1="13683" y1="80719" x2="13926" y2="80719" />
<line x1="13683" y1="80014" x2="13683" y2="80719" />
<line x1="12637" y1="80014" x2="13683" y2="80014" />
<line x1="12637" y1="79011" x2="12637" y2="80014" />
<line x1="11949" y1="79011" x2="12637" y2="79011" />
<line x1="11949" y1="77972" x2="11949" y2="79011" />
<line x1="11317" y1="77972" x2="11949" y2="77972" />
<line x1="11317" y1="77013" x2="11317" y2="77972" />
<line x1="10579" y1="77013" x2="11317" y2="77013" />
<line x1="10579" y1="75931" x2="10579" y2="77013" />
<line x1="10022" y1="75931" x2="10579" y2="75931" />
<line x1="10022" y1="75223" x2="10022" y2="75931" />
<line x1="8867" y1="75223" x2="10022" y2="75223" />
<line x1="8867" y1="74146" x2="8867" y2="75223" />
<line x1="8287" y1="74146" x2="8867" y2="74146" />
<line x1="8287" y1="72758" x2="8287" y2="74146" />
<line x1="8283" y1="72758" x2="8287" y2="72758" />
<line x1="8283" y1="71780" x2="8283" y2="72758" />
<line x1="7551" y1="71780" x2="8283" y2="71780" />
<line x1="7551" y1="70710" x2="7551" y2="71780" />
<line x1="6987" y1="70710" x2="7551" y2="70710" />
<line x1="6987" y1="69862" x2="6987" y2="70710" />
<line x1="5926" y1="69862" x2="6987" y2="69862" />
<line x1="5926" y1="68467" x2="5926" y2="69862" />
<line x1="5926" y1="68467" x2="6085" y2="68467" />
<line x1="6085" y1="67429" x2="6085" y2="68467" />
<line x1="5424" y1="67429" x2="6085" y2="67429" />
<line x1="5424" y1="66459" x2="5424" y2="67429" />
<line x1="4544" y1="66459" x2="5424" y2="66459" />
<line x1="4544" y1="65211" x2="4544" y2="66459" />
<line x1="4412" y1="65211" x2="4544" y2="65211" />
<line x1="4412" y1="63988" x2="4412" y2="65211" />
<line x1="4250" y1="63988" x2="4412" y2="63988" />
<line x1="4250" y1="62862" x2="4250" y2="63988" />
<line x1="3775" y1="62862" x2="4250" y2="62862" />
<line x1="3775" y1="61613" x2="3775" y2="62862" />
<line x1="3759" y1="61613" x2="3775" y2="61613" />
<line x1="3759" y1="60550" x2="3759" y2="61613" />
<line x1="2979" y1="60550" x2="3759" y2="60550" />
<line x1="2979" y1="59304" x2="2979" y2="60550" />
<line x1="2979" y1="59304" x2="2988" y2="59304" />
<line x1="2988" y1="58041" x2="2988" y2="59304" />
<line x1="2988" y1="58041" x2="3169" y2="58041" />
<line x1="3169" y1="56941" x2="3169" y2="58041" />
<line x1="2368" y1="56941" x2="3169" y2="56941" />
<line x1="2368" y1="55761" x2="2368" y2="56941" />
<line x1="1970" y1="55761" x2="2368" y2="55761" />
<line x1="1970" y1="54536" x2="1970" y2="55761" />
<line x1="1904" y1="54536" x2="1970" y2="54536" />
<line x1="1904" y1="53327" x2="1904" y2="54536" />
<line x1="1650" y1="53327" x2="1904" y2="53327" />
<line x1="1650" y1="52065" x2="1650" y2="53327" />
<line x1="1650" y1="52065" x2="2410" y2="52065" />
<line x1="2410" y1="50860" x2="2410" y2="52065" />
<line x1="2307" y1="50860" x2="2410" y2="50860" />
<line x1="2307" y1="50327" x2="2307" y2="50860" />
<line x1="2307" y1="50327" x2="94862" y2="50327" />
<line x1="94862" y1="48448" x2="94862" y2="50327" />
<line x1="2476" y1="48448" x2="94862" y2="48448" />
<line x1="2476" y1="47210" x2="2476" y2="48448" />
<line x1="1932" y1="47210" x2="2476" y2="47210" />
<line x1="1932" y1="45986" x2="1932" y2="47210" />
<line x1="1929" y1="45986" x2="1932" y2="45986" />
<line x1="1929" y1="44754" x2="1929" y2="45986" />
<line x1="1901" y1="44754" x2="1929" y2="44754" />
<line x1="1901" y1="43550" x2="1901" y2="44754" />
<line x1="1901" y1="43550" x2="2145" y2="43550" />
<line x1="2145" y1="42393" x2="2145" y2="43550" />
<line x1="2145" y1="42393" x2="2659" y2="42393" />
<line x1="2659" y1="41205" x2="2659" y2="42393" />
<line x1="2659" y1="41205" x2="2909" y2="41205" />
<line x1="2909" y1="40066" x2="2909" y2="41205" />
<line x1="2909" y1="40066" x2="3391" y2="40066" />
<line x1="3391" y1="38856" x2="3391" y2="40066" />
<line x1="3391" y1="38856" x2="3520" y2="38856" />
<line x1="3520" y1="37750" x2="3520" y2="38856" />
<line x1="3520" y1="37750" x2="4071" y2="37750" />
<line x1="4071" y1="36357" x2="4071" y2="37750" />
<line x1="3602" y1="36357" x2="4071" y2="36357" />
<line x1="3602" y1="35303" x2="3602" y2="36357" />
<line x1="3602" y1="35303" x2="4327" y2="35303" />
<line x1="4327" y1="34006" x2="4327" y2="35303" />
<line x1="4301" y1="34006" x2="4327" y2="34006" />
<line x1="4301" y1="33110" x2="4301" y2="34006" />
<line x1="4301" y1="33110" x2="5398" y2="33110" />
<line x1="5398" y1="31732" x2="5398" y2="33110" />
<line x1="5218" y1="31732" x2="5398" y2="31732" />
<line x1="5218" y1="30710" x2="5218" y2="31732" />
<line x1="5218" y1="30710" x2="5938" y2="30710" />
<line x1="5938" y1="29727" x2="5938" y2="30710" />
<line x1="5938" y1="29727" x2="6713" y2="29727" />
<line x1="6713" y1="28738" x2="6713" y2="29727" />
<line x1="6713" y1="28738" x2="7443" y2="28738" />
<line x1="7443" y1="27424" x2="7443" y2="28738" />
<line x1="7443" y1="27424" x2="7538" y2="27424" />
<line x1="7538" y1="26483" x2="7538" y2="27424" />
<line x1="7538" y1="26483" x2="8350" y2="26483" />
<line x1="8350" y1="25393" x2="8350" y2="26483" />
<line x1="8350" y1="25393" x2="8888" y2="25393" />
<line x1="8888" y1="24571" x2="8888" y2="25393" />
<line x1="8888" y1="24571" x2="9858" y2="24571" />
<line x1="9858" y1="23033" x2="9858" y2="24571" />
<line x1="9725" y1="23033" x2="9858" y2="23033" />
<line x1="9725" y1="22420" x2="9725" y2="23033" />
<line x1="9725" y1="22420" x2="10985" y2="22420" />
<line x1="10985" y1="21135" x2="10985" y2="22420" />
<line x1="10985" y1="21135" x2="11286" y2="21135" />
<line x1="11286" y1="20222" x2="11286" y2="21135" />
<line x1="11286" y1="20222" x2="12105" y2="20222" />
<line x1="12105" y1="19090" x2="12105" y2="20222" />
<line x1="12105" y1="19090" x2="12652" y2="19090" />
<line x1="12652" y1="18520" x2="12652" y2="19090" />
<line x1="12652" y1="18520" x2="13867" y2="18520" />
<line x1="13867" y1="17597" x2="13867" y2="18520" />
<line x1="13867" y1="17597" x2="14657" y2="17597" />
<line x1="14657" y1="16483" x2="14657" y2="17597" />
<line x1="14657" y1="16483" x2="15251" y2="16483" />
<line x1="15251" y1="15659" x2="15251" y2="16483" />
<line x1="15251" y1="15659" x2="16156" y2="15659" />
<line x1="16156" y1="15112" x2="16156" y2="15659" />
<line x1="16156" y1="15112" x2="17318" y2="15112" />
<line x1="17318" y1="14180" x2="17318" y2="15112" />
<line x1="17318" y1="14180" x2="18110" y2="14180" />
<line x1="18110" y1="13723" x2="18110" y2="14180" />
<line x1="18110" y1="13723" x2="19313" y2="13723" />
<line x1="19313" y1="12278" x2="19313" y2="13723" />
<line x1="19313" y1="12278" x2="19697" y2="12278" />
<line x1="19697" y1="11901" x2="19697" y2="12278" />
<line x1="19697" y1="11901" x2="20951" y2="11901" />
<line x1="20951" y1="11155" x2="20951" y2="11901" />
<line x1="20951" y1="11155" x2="21909" y2="11155" />
<line x1="21909" y1="10349" x2="21909" y2="11155" />
<line x1="21909" y1="10349" x2="22829" y2="10349" />
<line x1="22829" y1="10131" x2="22829" y2="10349" />
<line x1="22829" y1="10131" x2="24139" y2="10131" />
<line x1="24139" y1="9032" x2="24139" y2="10131" />
<line x1="24139" y1="9032" x2="24877" y2="9032" />
<line x1="24877" y1="8324" x2="24877" y2="9032" />
<line x1="24877" y1="8324" x2="25874" y2="8324" />
<line x1="25874" y1="8069" x2="25874" y2="8324" />
<line x1="25874" y1="8069" x2="27125" y2="8069" />
<line x1="27125" y1="7601" x2="27125" y2="8069" />
<line x1="27125" y1="7601" x2="28244" y2="7601" />
<line x1="28244" y1="6547" x2="28244" y2="7601" />
<line x1="28244" y1="6547" x2="29077" y2="6547" />
<line x1="29077" y1="6547" x2="29077" y2="6637" />
<line x1="29077" y1="6637" x2="30457" y2="6637" />
<line x1="30457" y1="5948" x2="30457" y2="6637" />
<line x1="30457" y1="5948" x2="31475" y2="5948" />
<line x1="31475" y1="5450" x2="31475" y2="5948" />
<line x1="31475" y1="5450" x2="32580" y2="5450" />
<line x1="32580" y1="5036" x2="32580" y2="5450" />
<line x1="32580" y1="5036" x2="33719" y2="5036" />
<line x1="33719" y1="4438" x2="33719" y2="5036" />
<line x1="33719" y1="4438" x2="34796" y2="4438" />
<line x1="34796" y1="4187" x2="34796" y2="4438" />
<line x1="34796" y1="4187" x2="35992" y2="4187" />
<line x1="35992" y1="3882" x2="35992" y2="4187" />
<line x1="35992" y1="3882" x2="37167" y2="3882" />
<line x1="37167" y1="3882" x2="37167" y2="3909" />
<line x1="37167" y1="3909" x2="38424" y2="3909" />
<line x1="38424" y1="2922" x2="38424" y2="3909" />
<line x1="38424" y1="2922" x2="39436" y2="2922" />
<line x1="39436" y1="2715" x2="39436" y2="2922" />
<line x1="39436" y1="2715" x2="40641" y2="2715" />
<line x1="40641" y1="2522" x2="40641" y2="2715" />
<line x1="40641" y1="2522" x2="41847" y2="2522" />
<line x1="41847" y1="2062" x2="41847" y2="2522" />
<line x1="41847" y1="2062" x2="43013" y2="2062" />
<line x1="43013" y1="2062" x2="43013" y2="2150" />
<line x1="43013" y1="2150" x2="44260" y2="2150" />
<line x1="44260" y1="2103" x2="44260" y2="2150" />
<line x1="44260" y1="2103" x2="45482" y2="2103" />
<line x1="45482" y1="1956" x2="45482" y2="2103" />
<line x1="45482" y1="1956" x2="46693" y2="1956" />
<line x1="46693" y1="1635" x2="46693" y2="1956" />
<line x1="46693" y1="1635" x2="47900" y2="1635" />
<line x1="47900" y1="1635" x2="47900" y2="1834" />
<line x1="47900" y1="1834" x2="49130" y2="1834" />
<line x1="49130" y1="1834" x2="49130" y2="2003" />
<line x1="49130" y1="2003" x2="50350" y2="2003" />
<line x1="50350" y1="1905" x2="50350" y2="2003" />
<line x1="50350" y1="1905" x2="51569" y2="1905" />
<line x1="51569" y1="1905" x2="51569" y2="2142" />
<line x1="51569" y1="2142" x2="52777" y2="2142" />
<line x1="52777" y1="1831" x2="52777" y2="2142" />
<line x1="52777" y1="1831" x2="54021" y2="1831" />
<line x1="54021" y1="1831" x2="54021" y2="2536" />
<line x1="54021" y1="2536" x2="55176" y2="2536" />
<line x1="55176" y1="2536" x2="55176" y2="2683" />
<line x1="55176" y1="2683" x2="56377" y2="2683" />
<line x1="56377" y1="2683" x2="56377" y2="2933" />
<line x1="56377" y1="2933" x2="57562" y2="2933" />
<line x1="57562" y1="2684" x2="57562" y2="2933" />
<line x1="57562" y1="2684" x2="58836" y2="2684" />
<line x1="58836" y1="2684" x2="58836" y2="2992" />
<line x1="58836" y1="2992" x2="60018" y2="2992" />
<line x1="60018" y1="2992" x2="60018" y2="3304" />
<line x1="60018" y1="3304" x2="61195" y2="3304" />
<line x1="61195" y1="3304" x2="61195" y2="3827" />
<line x1="61195" y1="3827" x2="62314" y2="3827" />
<line x1="62314" y1="3827" x2="62314" y2="4308" />
<line x1="62314" y1="4308" x2="63435" y2="4308" />
<line x1="63435" y1="4308" x2="63435" y2="4737" />
<line x1="63435" y1="4737" x2="64564" y2="4737" />
<line x1="64564" y1="4737" x2="64564" y2="5144" />
<line x1="64564" y1="5144" x2="65698" y2="5144" />
<line x1="65698" y1="5144" x2="65698" y2="5262" />
<line x1="65698" y1="5262" x2="66940" y2="5262" />
<line x1="66940" y1="5262" x2="66940" y2="5301" />
<line x1="66940" y1="5301" x2="68233" y2="5301" />
<line x1="68233" y1="5301" x2="68233" y2="6389" />
<line x1="68233" y1="6389" x2="69092" y2="6389" />
<line x1="69092" y1="6389" x2="69092" y2="6413" />
<line x1="69092" y1="6413" x2="70413" y2="6413" />
<line x1="70413" y1="6413" x2="70413" y2="7295" />
<line x1="70413" y1="7295" x2="71335" y2="7295" />
<line x1="71335" y1="7295" x2="71335" y2="7611" />
<line x1="71335" y1="7611" x2="72537" y2="7611" />
<line x1="72537" y1="7611" x2="72537" y2="8332" />
<line x1="72537" y1="8332" x2="73526" y2="8332" />
<line x1="73526" y1="8332" x2="73526" y2="9122" />
<line x1="73526" y1="9122" x2="74466" y2="9122" />
<line x1="74466" y1="9122" x2="74466" y2="9789" />
<line x1="74466" y1="9789" x2="75472" y2="9789" />
<line x1="75472" y1="9789" x2="75472" y2="10098" />
<line x1="75472" y1="10098" x2="76716" y2="10098" />
<line x1="76716" y1="10098" x2="76716" y2="10630" />
<line x1="76716" y1="10630" x2="77830" y2="10630" />
<line x1="77830" y1="10630" x2="77830" y2="11600" />
<line x1="77830" y1="11600" x2="78630" y2="11600" />
<line x1="78630" y1="11600" x2="78630" y2="12218" />
<line x1="78630" y1="12218" x2="79688" y2="12218" />
<line x1="79688" y1="12218" x2="79688" y2="12987" />
<line x1="79688" y1="12987" x2="80631" y2="12987" />
<line x1="80631" y1="12987" x2="80631" y2="14110" />
<line x1="80631" y1="14110" x2="81267" y2="14110" />
<line x1="81267" y1="14110" x2="81267" y2="14451" />
<line x1="81267" y1="14451" x2="82590" y2="14451" />
<line x1="82590" y1="14451" x2="82590" y2="15788" />
<line x1="82590" y1="15788" x2="82999" y2="15788" />
<line x1="82999" y1="15788" x2="82999" y2="16088" />
<line x1="82999" y1="16088" x2="84410" y2="16088" />
<line x1="84410" y1="16088" x2="84410" y2="17031" />
<line x1="84410" y1="17031" x2="85193" y2="17031" />
<line x1="85193" y1="17031" x2="85193" y2="17768" />
<line x1="85193" y1="17768" x2="86202" y2="17768" />
<line x1="86202" y1="17768" x2="86202" y2="18700" />
<line x1="86202" y1="18700" x2="87001" y2="18700" />
<line x1="87001" y1="18700" x2="87001" y2="19755" />
<line x1="87001" y1="19755" x2="87649" y2="19755" />
<line x1="87649" y1="19755" x2="87649" y2="20909" />
<line x1="87649" y1="20909" x2="88153" y2="20909" />
<line x1="88153" y1="20909" x2="88153" y2="22019" />
<line x1="88153" y1="22019" x2="88692" y2="22019" />
<line x1="88692" y1="22019" x2="88692" y2="22592" />
<line x1="88692" y1="22592" x2="89995" y2="22592" />
<line x1="89995" y1="22592" x2="89995" y2="24081" />
<line x1="89957" y1="24081" x2="89995" y2="24081" />
<line x1="89957" y1="24081" x2="89957" y2="24876" />
<line x1="89957" y1="24876" x2="90969" y2="24876" />
<line x1="90969" y1="24876" x2="90969" y2="26162" />
<line x1="90969" y1="26162" x2="91178" y2="26162" />
<line x1="91178" y1="26162" x2="91178" y2="26945" />
<line x1="91178" y1="26945" x2="92259" y2="26945" />
<line x1="92259" y1="26945" x2="92259" y2="28197" />
<line x1="92259" y1="28197" x2="92491" y2="28197" />
<line x1="92491" y1="28197" x2="92491" y2="29171" />
<line x1="92491" y1="29171" x2="93256" y2="29171" />
<line x1="93256" y1="29171" x2="93256" y2="30246" />
<line x1="93256" y1="30246" x2="93831" y2="30246" />
<line x1="93831" y1="30246" x2="93831" y2="31254" />
<line x1="93831" y1="31254" x2="94576" y2="31254" />
<line x1="94576" y1="31254" x2="94576" y2="32490" />
<line x1="94576" y1="32490" x2="94778" y2="32490" />
<line x1="94778" y1="32490" x2="94778" y2="33580" />
<line x1="94778" y1="33580" x2="95347" y2="33580" />
<line x1="95347" y1="33580" x2="95347" y2="34655" />
<line x1="95347" y1="34655" x2="95983" y2="34655" />
<line x1="95983" y1="34655" x2="95983" y2="35967" />
<line x1="95894" y1="35967" x2="95983" y2="35967" />
<line x1="95894" y1="35967" x2="95894" y2="37018" />
<line x1="95894" y1="37018" x2="96652" y2="37018" />
<line x1="96652" y1="37018" x2="96652" y2="38192" />
<line x1="96652" y1="38192" x2="97015" y2="38192" />
<line x1="97015" y1="38192" x2="97015" y2="39422" />
<line x1="97015" y1="39422" x2="97139" y2="39422" />
<line x1="97139" y1="39422" x2="97139" y2="40657" />
<line x1="97139" y1="40657" x2="97203" y2="40657" />
<line x1="97203" y1="40657" x2="97203" y2="41816" />
<line x1="97203" y1="41816" x2="97657" y2="41816" />
<line x1="97657" y1="41816" x2="97657" y2="43105" />
<line x1="97309" y1="43105" x2="97657" y2="43105" />
<line x1="97309" y1="43105" x2="97309" y2="44268" />
<line x1="97309" y1="44268" x2="97776" y2="44268" />
<line x1="97776" y1="44268" x2="97776" y2="45484" />
<line x1="97776" y1="45484" x2="97875" y2="45484" />
<line x1="97875" y1="45484" x2="97875" y2="46674" />
<line x1="97875" y1="46674" x2="98324" y2="46674" />
<line x1="98324" y1="46674" x2="98324" y2="47923" />
<line x1="97833" y1="47923" x2="98324" y2="47923" />
<line x1="97833" y1="47923" x2="97833" y2="49140" />
<line x1="97618" y1="49140" x2="97833" y2="49140" />
<line x1="97618" y1="49140" x2="97618" y2="50351" />
<line x1="97618" y1="50351" x2="98214" y2="50351" />
<rect x="5424" y="50327" width="89438" fill="#FF0000" opacity="0.5" height="17102" /></g>
</svg>